<svg width="412" height="88" viewBox="0 0 412 88" fill="none" xmlns="http://www.w3.org/2000/svg">
<g clip-path="url(#clip0_108_172)">
<path d="M27.0667 16C27.6597 16 28.2528 16 28.8458 16C28.8884 16.007 28.9309 16.019 28.9735 16.0204C30.5452 16.0718 32.1002 16.2628 33.6401 16.5808C36.1306 17.095 38.5105 17.924 40.7732 19.085C43.9305 20.7048 46.6812 22.8487 49.0215 25.5166C51.3696 28.1937 53.1461 31.2102 54.3516 34.5606C55.3122 37.2296 55.8512 39.9823 55.9717 42.8167C55.9732 42.852 55.9542 42.8961 56 42.9206V45.0497C55.9589 45.0698 55.9737 45.1083 55.9726 45.1395C55.9551 45.5619 55.925 45.9837 55.8892 46.4049C55.7398 48.1568 55.4248 49.8787 54.947 51.5699C53.6761 56.0693 51.43 60.0151 48.1928 63.3886C45.7539 65.9298 42.9285 67.9361 39.7301 69.4138C36.548 70.884 33.2078 71.7293 29.7086 71.9475C29.5085 71.96 29.3043 71.9387 29.1083 71.9997H27.5334C27.3001 71.9924 27.0667 71.9851 26.8334 71.9778C25.6438 71.9172 24.4613 71.7964 23.2869 71.594C20.718 71.1509 18.2537 70.3761 15.9029 69.2496C12.7039 67.7164 9.89519 65.6492 7.48491 63.0452C4.88823 60.2394 2.94292 57.0351 1.64779 53.4385C0.686651 50.7704 0.148473 48.0174 0.0282945 45.183C0.026836 45.1477 0.0457962 45.1036 0 45.0791V43.0084C0.0396706 42.9874 0.0256692 42.9492 0.026836 42.9177C0.102093 40.9502 0.381538 39.0116 0.875378 37.1059C2.43507 31.0891 5.62651 26.1163 10.45 22.1953C12.1494 20.8139 13.9979 19.6634 15.9744 18.7218C18.2695 17.6282 20.6698 16.8593 23.1749 16.42C24.3773 16.2091 25.5878 16.0738 26.808 16.0268C26.8946 16.0236 26.9833 16.035 27.067 16.0003L27.0667 16ZM36.4412 44.522C36.5249 44.4989 36.5836 44.482 36.6425 44.4663C38.1059 44.0737 39.1986 43.2286 39.8284 41.8317C40.2295 40.9423 40.4191 40.003 40.4138 39.0297C40.4086 38.0522 40.1291 37.1546 39.5685 36.3484C39.0551 35.6098 38.3886 35.0361 37.6404 34.5507C36.6116 33.8827 35.4932 33.404 34.3393 33.0038C34.2153 32.9609 34.1934 32.9102 34.2243 32.7868C34.6234 31.2008 35.016 29.6131 35.4156 28.0275C35.4436 27.9166 35.4171 27.8898 35.3144 27.8647C34.3763 27.6352 33.4391 27.4021 32.5033 27.1632C32.3934 27.1352 32.3654 27.1609 32.3397 27.2644C31.9564 28.8145 31.5676 30.3628 31.1834 31.9126C31.1595 32.0088 31.14 32.0473 31.0244 32.019C30.294 31.8402 29.5616 31.6684 28.828 31.5019C28.7165 31.4765 28.6903 31.4479 28.7198 31.3312C29.11 29.7832 29.493 28.2331 29.8827 26.6848C29.914 26.5614 29.9008 26.5107 29.7646 26.4777C28.8542 26.2578 27.9465 26.0279 27.0378 25.8016C26.8503 25.7549 26.8509 25.7558 26.8036 25.9454C26.413 27.5135 26.0207 29.0814 25.6333 30.6501C25.6036 30.7706 25.5651 30.7989 25.4379 30.7671C24.8029 30.6081 24.1641 30.4666 23.5302 30.3012C22.1922 29.9518 20.8469 29.6298 19.506 29.292C19.4158 29.2692 19.3887 29.2891 19.368 29.3731C19.1168 30.3908 18.8639 31.4079 18.6078 32.4245C18.5839 32.5196 18.5965 32.5534 18.7015 32.5773C19.2974 32.7136 19.8928 32.8548 20.4852 33.0058C20.8422 33.0969 21.1998 33.1922 21.5175 33.3909C22.0863 33.7465 22.3599 34.4098 22.1998 35.0538C21.7229 36.9709 21.2454 38.8879 20.7676 40.8046C20.1171 43.4133 19.4698 46.0228 18.8114 48.6294C18.7006 49.0684 18.4188 49.3752 17.9574 49.4724C17.7048 49.5254 17.4527 49.4729 17.2077 49.4123C16.5625 49.2524 15.9184 49.0876 15.2755 48.9178C15.1778 48.8919 15.1416 48.9129 15.1031 49.0021C14.6326 50.094 14.1589 51.1846 13.6831 52.2741C13.6417 52.3686 13.6353 52.4144 13.7602 52.4389C13.9886 52.4832 14.2126 52.5492 14.4383 52.606C16.1696 53.0433 17.9008 53.4805 19.632 53.9181C19.8184 53.965 19.8184 53.9665 19.7708 54.1564C19.3773 55.7339 18.985 57.3114 18.5874 58.8877C18.553 59.0239 18.5594 59.0796 18.7187 59.1176C19.6393 59.3372 20.5564 59.5711 21.4735 59.8042C21.5758 59.8302 21.6196 59.8249 21.6493 59.7044C22.0414 58.1118 22.4422 56.5209 22.8345 54.9282C22.8643 54.8075 22.9028 54.7903 23.0174 54.8209C23.73 55.0111 24.4435 55.1978 25.1593 55.3754C25.2961 55.4092 25.3168 55.4588 25.2842 55.5883C24.8866 57.1597 24.4957 58.7328 24.099 60.3042C24.0698 60.4194 24.0908 60.4573 24.2104 60.4865C25.1345 60.7111 26.0575 60.9412 26.9783 61.1784C27.1192 61.2146 27.1534 61.1743 27.1851 61.0454C27.5789 59.448 27.9797 57.8522 28.375 56.2551C28.3992 56.1571 28.4281 56.1169 28.5383 56.1385C29.1818 56.2648 29.8297 56.3645 30.4813 56.438C31.7706 56.5836 33.059 56.63 34.3439 56.3952C36.1139 56.0717 37.5185 55.194 38.4612 53.641C39.201 52.4223 39.6359 51.0951 39.7429 49.6725C39.8287 48.5325 39.5735 47.4713 38.8985 46.5303C38.4058 45.8437 37.767 45.3186 37.0532 44.879C36.8607 44.7603 36.6626 44.6509 36.4418 44.5223L36.4412 44.522Z" fill="#F6921A"/>
<path d="M26.8333 72C26.8333 71.9927 26.8333 71.9854 26.8333 71.9781C27.0667 71.9854 27.3001 71.9927 27.5334 72H26.8333Z" fill="#FEFEFE"/>
<path d="M36.4412 44.522C36.662 44.6503 36.8601 44.76 37.0526 44.8787C37.7664 45.3186 38.4052 45.8434 38.8979 46.53C39.5731 47.471 39.8281 48.5322 39.7423 49.6722C39.6353 51.0948 39.2004 52.4217 38.4606 53.6407C37.5182 55.1937 36.1133 56.0714 34.3433 56.3949C33.0584 56.6297 31.77 56.5833 30.4807 56.4378C29.8291 56.3642 29.1812 56.2645 28.5377 56.1382C28.4275 56.1166 28.3986 56.1569 28.3744 56.2549C27.9791 57.8519 27.5783 59.4475 27.1845 61.0451C27.1528 61.174 27.1186 61.2146 26.9777 61.1781C26.0569 60.9409 25.1339 60.7108 24.2098 60.4862C24.0902 60.457 24.0692 60.4191 24.0984 60.3039C24.4951 58.7325 24.8863 57.1594 25.2836 55.588C25.3162 55.4582 25.2958 55.4089 25.1587 55.3751C24.4429 55.1975 23.7294 55.0111 23.0168 54.8206C22.9022 54.79 22.8637 54.8072 22.8339 54.9279C22.4413 56.5206 22.0408 58.1112 21.6487 59.7042C21.619 59.8249 21.5752 59.8299 21.4729 59.8039C20.5558 59.5709 19.6387 59.3369 18.7181 59.1173C18.5588 59.0793 18.5524 59.0236 18.5868 58.8874C18.9847 57.3111 19.3767 55.7333 19.7702 54.1561C19.8175 53.9662 19.8175 53.9648 19.6314 53.9178C17.9002 53.4803 16.169 53.043 14.4377 52.6057C14.212 52.5486 13.9879 52.4829 13.7596 52.4386C13.6347 52.4144 13.6411 52.3686 13.6825 52.2738C14.1583 51.184 14.632 50.0937 15.1025 49.0018C15.141 48.9126 15.1772 48.8919 15.2749 48.9175C15.9175 49.0876 16.5616 49.2524 17.2071 49.412C17.4524 49.4726 17.7041 49.5252 17.9568 49.4721C18.4182 49.3752 18.7 49.0684 18.8108 48.6291C19.4692 46.0225 20.1165 43.413 20.767 40.8043C21.245 38.8876 21.7225 36.9706 22.1992 35.0536C22.3593 34.4098 22.0857 33.7462 21.5169 33.3906C21.199 33.192 20.8413 33.0963 20.4846 33.0056C19.8922 32.8545 19.2971 32.7133 18.7009 32.5771C18.5959 32.5531 18.5833 32.5193 18.6072 32.4242C18.8633 31.4077 19.1162 30.3905 19.3674 29.3728C19.3881 29.2891 19.4149 29.2692 19.5054 29.2917C20.8466 29.6295 22.1916 29.9515 23.5296 30.301C24.1635 30.4666 24.8026 30.6078 25.4373 30.7668C25.5645 30.7986 25.603 30.7706 25.6327 30.6498C26.0204 29.0808 26.4124 27.5132 26.803 25.9451C26.8503 25.7555 26.8497 25.7546 27.0372 25.8013C27.9459 26.0276 28.8539 26.2572 29.764 26.4774C29.9002 26.5104 29.9134 26.5611 29.8821 26.6845C29.4924 28.2328 29.1094 29.7826 28.7192 31.3309C28.6897 31.4476 28.7159 31.4762 28.8274 31.5016C29.5607 31.6681 30.2931 31.8399 31.0238 32.0188C31.1396 32.047 31.1589 32.0085 31.1828 31.9123C31.567 30.3625 31.9558 28.8139 32.3391 27.2641C32.3648 27.1606 32.3928 27.1349 32.5027 27.1629C33.4385 27.4018 34.3757 27.6349 35.3138 27.8644C35.4165 27.8895 35.443 27.9163 35.415 28.0272C35.0154 29.6131 34.6231 31.2005 34.2237 32.7865C34.1928 32.9099 34.2147 32.9606 34.3387 33.0035C35.4929 33.4037 36.611 33.8827 37.6398 34.5504C38.388 35.0361 39.0545 35.6098 39.5679 36.3481C40.1285 37.1543 40.408 38.0522 40.4132 39.0294C40.4185 40.0028 40.2286 40.9423 39.8278 41.8314C39.1977 43.2283 38.1053 44.0734 36.6419 44.466C36.583 44.4817 36.5243 44.4984 36.4406 44.5217L36.4412 44.522ZM29.6596 52.1096C30.2345 52.0994 30.8033 52.0425 31.3555 51.8716C32.8951 51.3949 33.7366 49.9201 33.3347 48.391C33.1459 47.6732 32.69 47.1382 32.12 46.6919C31.326 46.07 30.4127 45.6783 29.4709 45.3481C28.2274 44.9123 26.9386 44.6465 25.659 44.3476C25.5446 44.3207 25.5417 44.3869 25.5239 44.4572C24.9846 46.6225 24.4458 48.7875 23.9041 50.9521C23.8796 51.0496 23.8814 51.0948 23.9966 51.1239C24.7536 51.3153 25.5067 51.5227 26.2698 51.6892C27.3864 51.9331 28.5109 52.1175 29.659 52.1096H29.6596ZM30.9378 42.0612C31.3345 42.0586 31.7744 42.028 32.2075 41.9274C33.8095 41.5546 34.7266 40.0287 34.2701 38.4839C34.068 37.7996 33.6094 37.3081 33.0441 36.9026C32.4832 36.5004 31.8607 36.2192 31.2164 35.9829C30.152 35.5923 29.0426 35.3695 27.9424 35.1128C27.8382 35.0886 27.8429 35.1612 27.8292 35.2169C27.3397 37.1794 26.8517 39.1422 26.3605 41.1042C26.3372 41.1978 26.3401 41.2384 26.4483 41.2638C26.7645 41.3375 27.0772 41.4274 27.3919 41.5082C28.5412 41.8031 29.6981 42.0499 30.9381 42.0615L30.9378 42.0612Z" fill="#FEFEFE"/>
<path d="M29.6596 52.1096C28.5115 52.1177 27.387 51.9334 26.2704 51.6892C25.5073 51.5224 24.7542 51.3153 23.9972 51.1239C23.8817 51.0948 23.8803 51.0496 23.9048 50.9521C24.4464 48.7877 24.9852 46.6225 25.5246 44.4572C25.5421 44.3869 25.5453 44.321 25.6596 44.3476C26.9393 44.6465 28.228 44.9123 29.4715 45.3481C30.4137 45.6783 31.3267 46.07 32.1207 46.6919C32.6909 47.1385 33.1469 47.6732 33.3353 48.391C33.737 49.9201 32.8957 51.3952 31.3561 51.8716C30.8039 52.0425 30.2351 52.0994 29.6599 52.1096H29.6596Z" fill="#F6921A"/>
<path d="M30.9378 42.0612C29.6978 42.0499 28.541 41.8028 27.3917 41.5079C27.0769 41.4271 26.7645 41.3372 26.448 41.2634C26.3401 41.2384 26.3369 41.1975 26.3602 41.1039C26.8515 39.1419 27.3395 37.1788 27.8289 35.2166C27.8426 35.1612 27.838 35.0882 27.9421 35.1125C29.0424 35.3691 30.1517 35.592 31.2161 35.9826C31.8602 36.2189 32.4829 36.5001 33.0439 36.9023C33.6092 37.3078 34.0677 37.7993 34.2699 38.4836C34.7261 40.0281 33.8093 41.5543 32.2073 41.927C31.7741 42.0277 31.3342 42.0583 30.9375 42.0609L30.9378 42.0612Z" fill="#F6921A"/>
<g clip-path="url(#clip1_108_172)">
<path d="M99.2506 16L98.8708 17.2761V54.3094L99.2506 54.6855L116.597 44.5171L99.2506 16Z" fill="#343434"/>
<path d="M99.2506 16L81.8906 44.5171L99.2506 54.6855V36.7129V16Z" fill="#8C8C8C"/>
<path d="M99.2506 57.9362L99.0336 58.1914V71.3821L99.2506 72L116.611 47.7812L99.2506 57.9362Z" fill="#3C3C3B"/>
<path d="M99.2506 72V57.9362L81.8906 47.7812L99.2506 72Z" fill="#8C8C8C"/>
<path d="M99.2507 54.6855L116.597 44.5171L99.2507 36.7129V54.6855Z" fill="#141414"/>
<path d="M81.8906 44.5171L99.2506 54.6855V36.7129L81.8906 44.5171Z" fill="#393939"/>
</g>
<path d="M183.873 25.1219C183.873 27.3554 183.873 29.5888 183.873 31.8222C183.873 31.888 183.87 31.9508 183.87 32.0166C183.858 32.0196 183.852 32.0256 183.852 32.0375C180.461 32.0375 177.071 32.0375 173.677 32.0405C173.608 32.0405 173.54 32.0405 173.462 32.0405C173.462 33.5594 173.462 35.0663 173.462 36.5821C173.57 36.5971 173.683 36.618 173.794 36.624C174.224 36.6479 174.658 36.6599 175.088 36.6868C175.591 36.7197 176.096 36.7585 176.598 36.8064C178.201 36.9529 179.797 37.1412 181.382 37.4372C182.988 37.7362 184.578 38.092 186.094 38.7199C186.605 38.9322 187.105 39.1714 187.538 39.5212C187.715 39.6647 187.882 39.8262 188.02 40.0056C188.346 40.4331 188.343 40.8906 188.029 41.3301C187.751 41.7158 187.368 41.9759 186.961 42.2031C186.067 42.6994 185.104 43.0164 184.127 43.2884C182.725 43.6771 181.298 43.9462 179.86 44.1525C179.143 44.2542 178.419 44.3409 177.699 44.4246C177.187 44.4844 176.673 44.5322 176.162 44.5741C175.576 44.6219 174.987 44.6578 174.398 44.6997C174.093 44.7206 173.788 44.7445 173.456 44.7684C173.456 44.8282 173.456 44.894 173.456 44.9628C173.456 49.6898 173.456 54.4138 173.456 59.1408C173.456 59.2066 173.453 59.2694 173.453 59.3351C173.444 59.3351 173.438 59.3411 173.435 59.3531C173.396 59.3561 173.354 59.3591 173.315 59.3591C170.894 59.3591 168.469 59.3591 166.047 59.3591C166.011 59.3591 165.978 59.3561 165.942 59.3561C165.939 59.3441 165.93 59.3411 165.918 59.3381C165.918 59.2723 165.915 59.2096 165.915 59.1438C165.915 54.4168 165.915 49.6928 165.915 44.9658C165.915 44.903 165.915 44.8372 165.915 44.7654C165.581 44.7445 165.258 44.7266 164.935 44.7086C164.57 44.6877 164.205 44.6668 163.84 44.6399C163.138 44.5861 162.438 44.5382 161.739 44.4635C161.042 44.3887 160.348 44.293 159.655 44.1914C158.196 43.9821 156.748 43.719 155.325 43.3303C154.374 43.0732 153.439 42.7682 152.56 42.3137C152.183 42.1194 151.824 41.8952 151.522 41.5902C151.42 41.4885 151.328 41.3749 151.253 41.2523C151.017 40.8756 151.02 40.4899 151.253 40.1102C151.438 39.8082 151.705 39.581 151.998 39.3866C152.676 38.9292 153.43 38.6302 154.201 38.3731C155.6 37.9037 157.041 37.5927 158.495 37.3565C159.472 37.201 160.456 37.0755 161.437 36.9469C161.819 36.8961 162.205 36.8781 162.591 36.8423C163.069 36.8004 163.547 36.7526 164.026 36.7167C164.328 36.6928 164.63 36.6838 164.932 36.6629C165.255 36.6419 165.575 36.618 165.906 36.5941C165.906 35.0872 165.906 33.5833 165.906 32.0495C162.447 32.0495 158.982 32.0495 155.52 32.0495C155.52 32.0375 155.514 32.0315 155.502 32.0286C155.502 31.1585 155.499 30.2884 155.499 29.4154C155.499 27.9862 155.499 26.5601 155.499 25.1309C155.505 25.1219 155.511 25.11 155.514 25.101C155.567 25.101 155.624 25.098 155.678 25.098C165.018 25.098 174.362 25.098 183.702 25.098C183.756 25.098 183.813 25.101 183.867 25.101C183.861 25.101 183.867 25.11 183.873 25.1219ZM173.441 37.1622C173.441 38.8335 173.441 40.5049 173.441 42.1762C173.435 42.1852 173.432 42.1971 173.426 42.2061C173.214 42.227 173.004 42.2569 172.792 42.2659C172.233 42.2898 171.671 42.3227 171.112 42.3257C170.116 42.3287 169.124 42.3137 168.128 42.3018C167.736 42.2958 167.345 42.2809 166.953 42.2629C166.612 42.248 166.271 42.224 165.93 42.2031C165.924 42.1941 165.915 42.1852 165.909 42.1732C165.909 40.4959 165.909 38.8186 165.909 37.1143C165.691 37.1293 165.488 37.1442 165.288 37.1562C164.962 37.1741 164.633 37.1831 164.307 37.204C163.784 37.2429 163.26 37.2878 162.737 37.3326C162.187 37.3804 161.631 37.4163 161.084 37.4911C159.981 37.6435 158.877 37.802 157.78 37.9934C156.659 38.1907 155.55 38.4598 154.491 38.8963C154.126 39.0458 153.782 39.2521 153.436 39.4464C153.313 39.5152 153.205 39.6229 153.107 39.7275C152.751 40.1042 152.751 40.5019 153.101 40.8816C153.394 41.1985 153.768 41.3988 154.153 41.5752C155.041 41.9819 155.977 42.23 156.925 42.4453C158.417 42.7802 159.927 43.0014 161.446 43.1629C162.1 43.2316 162.758 43.2884 163.416 43.3453C163.903 43.3871 164.391 43.432 164.878 43.4589C165.356 43.4888 165.838 43.4977 166.316 43.5187C166.821 43.5396 167.327 43.5785 167.832 43.5785C169.171 43.5815 170.508 43.5665 171.847 43.5575C172.2 43.5545 172.553 43.5426 172.903 43.5246C173.453 43.5007 174 43.4708 174.55 43.4379C175.127 43.4021 175.704 43.3632 176.281 43.3154C176.802 43.2735 177.322 43.2257 177.842 43.1659C178.554 43.0821 179.268 43.0104 179.971 42.8908C180.984 42.7144 181.995 42.5171 183 42.2958C183.759 42.1284 184.501 41.8862 185.209 41.5513C185.562 41.3839 185.912 41.2015 186.187 40.9175C186.525 40.5706 186.573 40.176 186.277 39.8082C186.16 39.6647 186.01 39.5421 185.858 39.4345C185.46 39.1534 185.015 38.9651 184.56 38.7976C183.84 38.5286 183.098 38.3282 182.348 38.1698C181.938 38.0831 181.526 37.9993 181.113 37.9246C180.584 37.8289 180.052 37.7422 179.516 37.6615C179.188 37.6107 178.856 37.5808 178.524 37.5419C178.123 37.4941 177.725 37.4372 177.325 37.3984C176.939 37.3595 176.55 37.3386 176.162 37.3087C175.764 37.2788 175.366 37.2489 174.969 37.219C174.786 37.207 174.604 37.1981 174.422 37.1891C174.102 37.1711 173.782 37.1502 173.459 37.1323C173.453 37.1412 173.447 37.1532 173.441 37.1622Z" fill="#FEFEFE"/>
<path d="M155.507 25.089C155.5 25.0984 155.494 25.1111 155.491 25.1206C155.494 25.1111 155.5 25.1016 155.507 25.089Z" fill="#7ACDB9"/>
<path d="M183.874 25.1233C183.867 25.1138 183.861 25.1012 183.858 25.0917C183.861 25.1012 183.867 25.1107 183.874 25.1233Z" fill="#7ACDB9"/>
<path d="M155.496 32.0167C155.51 32.02 155.516 32.0266 155.516 32.0398C155.51 32.0332 155.503 32.0233 155.496 32.0167Z" fill="#7ACDB9"/>
<path d="M183.852 32.0398C183.852 32.0266 183.859 32.02 183.872 32.0167C183.862 32.0233 183.859 32.0332 183.852 32.0398Z" fill="#7ACDB9"/>
<path d="M165.914 59.3261C165.927 59.3261 165.933 59.3327 165.94 59.3459C165.93 59.336 165.92 59.3327 165.914 59.3261Z" fill="#90D4C4"/>
<path d="M173.429 59.341C173.429 59.3321 173.435 59.3262 173.447 59.3233C173.441 59.3292 173.435 59.3351 173.429 59.341Z" fill="#90D4C4"/>
<path fill-rule="evenodd" clip-rule="evenodd" d="M169.547 70H169.786C169.87 69.9256 169.955 69.8519 170.041 69.7783C170.239 69.6064 170.438 69.4346 170.626 69.2525C173.953 66.0673 177.28 62.8794 180.606 59.6916C182.27 58.0976 183.933 56.5037 185.597 54.9101L196.339 44.6159L196.34 44.615C197.315 43.6825 198.289 42.7499 199.26 41.8144C199.334 41.7428 199.398 41.6601 199.461 41.5776C199.491 41.5395 199.52 41.5014 199.55 41.4646V41.2553C199.066 40.2422 198.584 39.2273 198.102 38.2134C197.947 37.8868 197.792 37.5603 197.637 37.2339C194.641 30.9402 191.645 24.6465 188.652 18.3528C188.536 18.1046 188.368 18 188.093 18C175.811 18.003 163.531 18.003 151.249 18C150.962 18 150.794 18.1106 150.672 18.3678C147.078 25.9232 143.481 33.4786 139.884 41.0311C139.723 41.3689 139.744 41.5005 140.001 41.7456C145.018 46.5534 150.035 51.3611 155.052 56.1658C159.785 60.7045 164.521 65.2431 169.257 69.7788C169.315 69.8353 169.382 69.8822 169.45 69.9298C169.482 69.9527 169.515 69.9757 169.547 70ZM155.491 25.1189C155.494 25.1099 155.5 25.098 155.506 25.089C155.56 25.089 155.614 25.086 155.662 25.077H183.686C183.713 25.077 183.741 25.0778 183.768 25.0785C183.796 25.0793 183.824 25.08 183.85 25.08C183.853 25.089 183.859 25.101 183.865 25.1099V31.8103C183.865 31.8431 183.865 31.8753 183.864 31.9074C183.863 31.9396 183.862 31.9717 183.862 32.0046C183.859 32.0076 183.856 32.0113 183.853 32.0151C183.85 32.0188 183.847 32.0225 183.844 32.0255C180.451 32.0285 177.06 32.0285 173.67 32.0285H173.455V36.5702C173.486 36.5744 173.518 36.5792 173.549 36.5839C173.628 36.5958 173.707 36.6077 173.787 36.612C173.978 36.6227 174.17 36.6309 174.362 36.6392C174.602 36.6495 174.842 36.6599 175.081 36.6748C175.586 36.7077 176.089 36.7495 176.591 36.7944C178.194 36.9409 179.79 37.1322 181.375 37.4253C182.98 37.7242 184.571 38.08 186.087 38.7079C186.598 38.9202 187.097 39.1594 187.531 39.5092C187.707 39.6527 187.875 39.8142 188.012 39.9936C188.341 40.4211 188.335 40.8786 188.021 41.3181C187.743 41.7038 187.361 41.9639 186.954 42.1911C186.063 42.6874 185.1 43.0044 184.12 43.2765C182.717 43.6651 181.291 43.9342 179.853 44.1405C179.135 44.2422 178.412 44.3289 177.691 44.4126C177.18 44.4724 176.669 44.5202 176.154 44.5621C175.76 44.5942 175.366 44.6209 174.972 44.6476C174.778 44.6607 174.585 44.6739 174.39 44.6877C174.166 44.7053 173.941 44.7213 173.706 44.738C173.622 44.744 173.536 44.7501 173.449 44.7564V44.9508V59.1288C173.449 59.1617 173.448 59.1938 173.447 59.226C173.446 59.2581 173.446 59.2903 173.446 59.3231L173.428 59.3411C173.389 59.3441 173.347 59.3471 173.308 59.3471H166.04C166.022 59.3471 166.005 59.3463 165.987 59.3456C165.97 59.3448 165.953 59.3441 165.935 59.3441C165.926 59.3381 165.92 59.3321 165.911 59.3261C165.911 59.2932 165.91 59.2611 165.91 59.229C165.909 59.1968 165.908 59.1647 165.908 59.1318V44.9538V44.7535C165.57 44.7355 165.25 44.7176 164.927 44.6966C164.855 44.6925 164.782 44.6884 164.709 44.6843C164.417 44.6681 164.125 44.6518 163.833 44.6279C163.703 44.6179 163.573 44.608 163.442 44.5982C162.872 44.5553 162.301 44.5123 161.731 44.4515C161.035 44.3767 160.341 44.2781 159.648 44.1794L159.647 44.1794C158.188 43.9701 156.741 43.704 155.318 43.3183C154.367 43.0612 153.431 42.7562 152.552 42.3018C152.173 42.1074 151.814 41.8832 151.515 41.5782C151.416 41.4736 151.321 41.3629 151.246 41.2403C151.01 40.8606 151.013 40.4779 151.246 40.0982C151.434 39.7962 151.7 39.569 151.99 39.3747C152.669 38.9172 153.422 38.6182 154.194 38.3611C155.593 37.8917 157.031 37.5777 158.487 37.3445C159.368 37.2045 160.253 37.0887 161.137 36.9731C161.235 36.9604 161.332 36.9477 161.429 36.9349C161.703 36.8985 161.979 36.8775 162.255 36.8564C162.364 36.848 162.474 36.8396 162.583 36.8303C162.743 36.8163 162.902 36.802 163.062 36.7877C163.381 36.7592 163.7 36.7306 164.019 36.7047C164.22 36.6887 164.421 36.6781 164.623 36.6675C164.723 36.6622 164.824 36.6569 164.924 36.6509C165.184 36.6339 165.445 36.615 165.712 36.5957C165.774 36.5912 165.836 36.5866 165.899 36.5821V32.0375H155.512C155.509 32.0345 155.506 32.0308 155.503 32.027C155.5 32.0233 155.497 32.0196 155.494 32.0166C155.494 31.5797 155.494 31.1435 155.493 30.7077C155.492 30.2727 155.491 29.8381 155.491 29.4034V25.1189ZM166.191 42.2193C166.106 42.2139 166.021 42.2084 165.936 42.2032C165.927 42.1942 165.921 42.1853 165.915 42.1703V37.1114C165.855 37.1155 165.797 37.1196 165.74 37.1236C165.586 37.1343 165.439 37.1446 165.293 37.1533C165.199 37.1576 165.105 37.1614 165.011 37.1652C164.778 37.1747 164.544 37.1841 164.312 37.2011C163.789 37.237 163.266 37.2819 162.743 37.3297C162.611 37.3411 162.479 37.3519 162.347 37.3627C161.927 37.3969 161.506 37.4313 161.089 37.4882C159.986 37.6406 158.883 37.7991 157.785 37.9905C156.661 38.1878 155.555 38.4569 154.497 38.8934C154.192 39.0181 153.903 39.1823 153.614 39.3462C153.556 39.3787 153.499 39.4113 153.441 39.4435C153.319 39.5153 153.211 39.6199 153.112 39.7246C152.756 40.1013 152.756 40.499 153.106 40.8787C153.399 41.1956 153.773 41.3959 154.159 41.5723C155.047 41.979 155.983 42.2301 156.93 42.4424C158.422 42.7773 159.932 42.9985 161.451 43.16C162.013 43.2216 162.578 43.27 163.143 43.3184C163.236 43.3264 163.329 43.3343 163.421 43.3424L163.422 43.3424C163.909 43.3842 164.396 43.4261 164.883 43.456C165.187 43.475 165.493 43.4855 165.798 43.4961C165.972 43.5021 166.147 43.5081 166.322 43.5158C166.481 43.5224 166.641 43.5308 166.8 43.5392C167.146 43.5574 167.492 43.5756 167.837 43.5756C169.175 43.5785 170.509 43.5666 171.846 43.5547L171.853 43.5546C172.202 43.5517 172.548 43.537 172.897 43.5222L172.908 43.5217C173.458 43.4978 174.009 43.4679 174.556 43.435C175.133 43.3992 175.71 43.3603 176.287 43.3125C176.807 43.2706 177.327 43.2228 177.848 43.163C177.953 43.151 178.059 43.1392 178.164 43.1274C178.77 43.0598 179.375 42.9923 179.976 42.8879C180.99 42.7115 182.001 42.5142 183.005 42.2929C183.765 42.1255 184.506 41.8833 185.215 41.5484C185.567 41.381 185.914 41.1986 186.192 40.9146C186.533 40.5648 186.581 40.1731 186.282 39.8053C186.165 39.6618 186.016 39.5392 185.863 39.4316C185.466 39.1505 185.02 38.9622 184.566 38.7947C183.845 38.5257 183.104 38.3253 182.353 38.1669C181.944 38.0802 181.531 37.9964 181.119 37.9217C180.586 37.829 180.054 37.7393 179.522 37.6586C179.286 37.6242 179.048 37.5975 178.809 37.5708C178.716 37.5604 178.623 37.5499 178.529 37.539C178.394 37.5228 178.259 37.5056 178.124 37.4885C177.86 37.4548 177.596 37.4212 177.33 37.3955C177.072 37.3695 176.813 37.3515 176.553 37.3335C176.424 37.3246 176.296 37.3157 176.167 37.3058C176.035 37.2958 175.902 37.2855 175.77 37.2752C175.504 37.2546 175.239 37.234 174.974 37.2161C174.883 37.2101 174.792 37.2056 174.701 37.2011C174.61 37.1967 174.518 37.1922 174.427 37.1862C174.261 37.177 174.096 37.1669 173.931 37.1569C173.775 37.1475 173.62 37.1381 173.464 37.1294C173.461 37.1365 173.457 37.1426 173.454 37.1488C173.451 37.1531 173.449 37.1574 173.446 37.1623V42.1763C173.443 42.1808 173.441 42.186 173.439 42.1912C173.437 42.1965 173.435 42.2017 173.432 42.2062C173.367 42.2126 173.303 42.2198 173.238 42.227C173.092 42.2434 172.945 42.2598 172.798 42.266C172.744 42.2686 172.69 42.2712 172.636 42.2738C172.131 42.2984 171.623 42.3231 171.117 42.3258C170.265 42.3284 169.415 42.3178 168.564 42.3072C168.42 42.3054 168.277 42.3036 168.133 42.3019C167.742 42.2959 167.35 42.2809 166.958 42.263C166.703 42.2518 166.447 42.2355 166.191 42.2193Z" fill="#0BB194"/>
<path d="M173.465 37.1295C173.459 37.1421 173.452 37.1516 173.446 37.1642C173.449 37.1548 173.455 37.1421 173.465 37.1295Z" fill="#6FC8B3"/>
<path d="M165.936 42.205C165.929 42.1956 165.92 42.1861 165.914 42.1735C165.92 42.1861 165.926 42.1956 165.936 42.205Z" fill="#A0DBCD"/>
<path d="M173.445 42.1763C173.439 42.1857 173.436 42.1984 173.429 42.2078C173.436 42.1984 173.439 42.1857 173.445 42.1763Z" fill="#6FC8B3"/>
<g clip-path="url(#clip2_108_172)">
<path d="M242.236 71.9897C226.738 71.9997 214.241 59.523 214.241 44.0247C214.241 28.3663 226.908 15.8796 242.496 16.0097C257.794 16.1398 270.351 28.5164 270.241 44.2348C270.121 59.6831 257.624 72.0097 242.236 71.9897ZM244.117 54.6504C244.437 54.5703 244.727 54.5003 245.008 54.4203C247.939 53.6098 250.2 51.2786 249.92 47.7567C249.76 45.7356 248.85 44.2548 246.969 43.4244C245.718 42.8641 244.397 42.654 243.066 42.4138C241.976 42.2237 240.875 42.0036 239.825 41.6534C238.744 41.2932 238.364 40.3927 238.394 39.2721C238.434 38.1916 238.924 37.4412 239.905 37.0109C240.745 36.6407 241.626 36.6507 242.506 36.7008C244.067 36.7808 245.168 37.4912 245.678 39.002C245.848 39.5023 246.188 39.7124 246.698 39.7124C247.199 39.7124 247.699 39.7124 248.199 39.7124C249.02 39.7024 249.35 39.2922 249.17 38.4917C248.669 36.2105 246.778 34.4095 244.437 34.0493C244.077 33.9893 243.967 33.8693 243.977 33.5191C243.997 32.7987 243.987 32.0883 243.987 31.3679C243.987 30.6875 243.597 30.2773 242.916 30.2473C242.446 30.2273 241.986 30.2373 241.516 30.2473C240.765 30.2473 240.375 30.6175 240.345 31.3679C240.325 31.8482 240.345 32.3384 240.345 32.8187C240.345 33.8092 240.345 33.8092 239.405 34.0393C236.673 34.7297 234.892 36.5807 234.672 39.1221C234.462 41.6634 235.342 43.5945 237.804 44.555C238.684 44.8952 239.615 45.1053 240.535 45.3354C241.886 45.6656 243.297 45.8357 244.597 46.2959C246.168 46.8462 246.678 48.6071 245.838 50.0679C245.208 51.1585 244.197 51.6488 242.996 51.7688C240.775 51.999 238.324 51.4287 237.894 48.7272C237.824 48.307 237.483 48.0869 237.053 48.0869C236.523 48.0769 235.983 48.0769 235.452 48.0769C234.472 48.0769 234.172 48.4571 234.372 49.4276C234.972 52.2191 236.803 53.7599 239.485 54.4303C239.815 54.5103 240.155 54.5803 240.505 54.6604C240.505 55.5809 240.505 56.4413 240.505 57.3118C240.505 57.9521 240.875 58.3223 241.526 58.3424C241.976 58.3524 242.426 58.3524 242.876 58.3524C243.777 58.3524 244.127 58.0022 244.127 57.0717C244.127 56.2712 244.117 55.4708 244.117 54.6504ZM247.519 62.6947C247.519 63.0649 247.489 63.4351 247.529 63.7953C247.589 64.3756 248.069 64.6457 248.609 64.4456C248.699 64.4156 248.8 64.3756 248.89 64.3456C252.752 63.0649 256.023 60.8937 258.555 57.712C262.687 52.5192 264.228 46.6161 262.817 40.1226C261.106 32.2684 256.294 27.0356 248.75 24.3141C247.979 24.034 247.529 24.3742 247.499 25.2046C247.479 25.7349 247.469 26.2752 247.489 26.8055C247.519 27.4458 247.839 27.8961 248.449 28.1262C255.843 30.9377 260.476 38.3817 259.535 46.2059C258.725 52.9094 255.173 57.692 248.98 60.4635C247.509 61.1238 247.499 61.1038 247.519 62.6947ZM221.155 44.2648C221.215 45.1453 221.225 46.0358 221.345 46.9062C222.185 52.8694 224.997 57.692 229.849 61.2839C231.66 62.6246 233.661 63.5952 235.793 64.3055C236.383 64.4957 236.693 64.3856 236.883 63.7953C237.003 63.4251 236.983 63.0149 236.993 62.6146C237.003 61.0738 236.933 60.9738 235.542 60.3935C235.392 60.3334 235.242 60.2534 235.082 60.1833C225.927 56.1012 221.825 44.7851 227.248 35.4601C229.299 31.9282 232.291 29.4769 236.083 28.0061C236.763 27.746 236.993 27.4158 237.003 26.6854C237.013 26.3152 237.003 25.955 237.003 25.5848C237.003 24.2441 236.673 23.994 235.422 24.4142C226.908 27.2857 221.165 35.3 221.155 44.2648Z" fill="#0274D0"/>
<path d="M244.116 54.6504C244.116 55.4709 244.116 56.2713 244.116 57.0617C244.116 57.9822 243.765 58.3424 242.865 58.3424C242.415 58.3424 241.965 58.3524 241.514 58.3324C240.874 58.3124 240.504 57.9422 240.494 57.3018C240.484 56.4314 240.494 55.5709 240.494 54.6504C240.144 54.5704 239.813 54.5003 239.473 54.4203C236.792 53.7499 234.971 52.2091 234.36 49.4176C234.15 48.4471 234.451 48.0669 235.441 48.0669C235.971 48.0669 236.512 48.0669 237.042 48.0769C237.482 48.0869 237.822 48.297 237.882 48.7172C238.313 51.4187 240.774 51.989 242.985 51.7589C244.186 51.6388 245.196 51.1485 245.827 50.058C246.667 48.5972 246.157 46.8462 244.586 46.2859C243.275 45.8257 241.874 45.6556 240.524 45.3254C239.603 45.1053 238.673 44.8952 237.792 44.545C235.331 43.5745 234.451 41.6435 234.661 39.1121C234.871 36.5607 236.652 34.7097 239.393 34.0294C240.334 33.7893 240.334 33.7893 240.334 32.8087C240.334 32.3285 240.324 31.8382 240.334 31.3579C240.364 30.6075 240.754 30.2373 241.504 30.2373C241.975 30.2373 242.435 30.2173 242.905 30.2373C243.585 30.2674 243.966 30.6776 243.976 31.3579C243.986 32.0783 243.996 32.7887 243.966 33.5091C243.956 33.8593 244.056 33.9894 244.426 34.0394C246.757 34.3996 248.658 36.2005 249.158 38.4818C249.338 39.2922 249.008 39.6924 248.188 39.7024C247.688 39.7024 247.187 39.7024 246.687 39.7024C246.187 39.7024 245.837 39.5023 245.667 38.992C245.156 37.4812 244.056 36.7809 242.495 36.6908C241.604 36.6408 240.724 36.6308 239.893 37.001C238.913 37.4312 238.413 38.1816 238.383 39.2622C238.343 40.3828 238.733 41.2833 239.813 41.6435C240.864 41.9936 241.965 42.2138 243.055 42.4039C244.386 42.644 245.717 42.8541 246.957 43.4144C248.838 44.2549 249.749 45.7356 249.909 47.7467C250.189 51.2686 247.928 53.5999 244.996 54.4103C244.726 54.5003 244.436 54.5704 244.116 54.6504Z" fill="#FEFEFE"/>
<path d="M247.518 62.6945C247.498 61.0937 247.508 61.1237 248.989 60.4633C255.182 57.6919 258.734 52.9093 259.545 46.2057C260.485 38.3815 255.853 30.9475 248.459 28.126C247.848 27.8959 247.528 27.4457 247.498 26.8053C247.478 26.275 247.488 25.7348 247.508 25.2045C247.538 24.374 247.988 24.0439 248.759 24.314C256.313 27.0355 261.115 32.2683 262.826 40.1225C264.237 46.6159 262.696 52.5191 258.564 57.7119C256.023 60.8936 252.751 63.0647 248.899 64.3454C248.809 64.3754 248.709 64.4155 248.619 64.4455C248.068 64.6456 247.598 64.3754 247.538 63.7951C247.488 63.4349 247.518 63.0647 247.518 62.6945Z" fill="#FEFEFE"/>
<path d="M221.157 44.265C221.167 35.3002 226.91 27.2959 235.434 24.4144C236.685 23.9941 237.015 24.2443 237.015 25.585C237.015 25.9552 237.015 26.3154 237.015 26.6856C237.005 27.416 236.775 27.7361 236.095 28.0063C232.303 29.4871 229.311 31.9384 227.26 35.4603C221.837 44.7853 225.939 56.1013 235.104 60.1835C235.254 60.2536 235.404 60.3236 235.564 60.3936C236.965 60.9839 237.035 61.074 237.015 62.6148C237.015 63.005 237.025 63.4252 236.905 63.7954C236.715 64.3858 236.395 64.4958 235.814 64.3057C233.683 63.6053 231.672 62.6248 229.871 61.2841C225.019 57.6922 222.207 52.8696 221.367 46.9064C221.227 46.0259 221.217 45.1455 221.157 44.265Z" fill="#FEFEFE"/>
</g>
<circle cx="312.932" cy="44" r="28" fill="black"/>
<path d="M301.148 51.2019C301.359 50.9912 301.648 50.8683 301.955 50.8683H329.815C330.324 50.8683 330.579 51.4827 330.219 51.8426L324.715 57.346C324.505 57.5567 324.215 57.6796 323.908 57.6796H296.048C295.539 57.6796 295.285 57.0652 295.644 56.7053L301.148 51.2019Z" fill="url(#paint0_linear_108_172)"/>
<path d="M301.148 30.654C301.367 30.4433 301.657 30.3204 301.955 30.3204H329.815C330.324 30.3204 330.579 30.9349 330.219 31.2947L324.715 36.7981C324.505 37.0088 324.215 37.1317 323.908 37.1317H296.048C295.539 37.1317 295.285 36.5173 295.645 36.1574L301.148 30.654Z" fill="url(#paint1_linear_108_172)"/>
<path d="M324.715 40.8621C324.505 40.6514 324.215 40.5285 323.908 40.5285H296.048C295.539 40.5285 295.285 41.1429 295.644 41.5028L301.148 47.0062C301.359 47.2169 301.648 47.3398 301.955 47.3398H329.815C330.324 47.3398 330.579 46.7254 330.219 46.3655L324.715 40.8621Z" fill="url(#paint2_linear_108_172)"/>
<circle cx="383.622" cy="44" r="28" fill="#8247E5"/>
<g clip-path="url(#clip3_108_172)">
<path d="M393.176 37.5572C392.497 37.1692 391.624 37.1692 390.848 37.5572L385.417 40.758L381.731 42.7949L376.396 45.9957C375.717 46.3836 374.844 46.3836 374.068 45.9957L369.898 43.4738C369.219 43.0858 368.734 42.3099 368.734 41.4369V36.5872C368.734 35.8113 369.122 35.0353 369.898 34.5504L374.068 32.1255C374.747 31.7375 375.62 31.7375 376.396 32.1255L380.567 34.6474C381.246 35.0353 381.731 35.8113 381.731 36.6842V39.885L385.417 37.7512V34.4534C385.417 33.6774 385.029 32.9015 384.253 32.4165L376.493 27.8578C375.814 27.4698 374.941 27.4698 374.165 27.8578L366.212 32.5135C365.436 32.9015 365.048 33.6774 365.048 34.4534V43.5708C365.048 44.3468 365.436 45.1227 366.212 45.6077L374.068 50.1664C374.747 50.5544 375.62 50.5544 376.396 50.1664L381.731 47.0626L385.417 44.9287L390.751 41.8249C391.43 41.4369 392.303 41.4369 393.079 41.8249L397.25 44.2498C397.929 44.6377 398.414 45.4137 398.414 46.2866V51.1364C398.414 51.9123 398.026 52.6883 397.25 53.1732L393.176 55.5981C392.497 55.9861 391.624 55.9861 390.848 55.5981L386.678 53.1732C385.999 52.7853 385.514 52.0093 385.514 51.1364V48.0325L381.828 50.1664V53.3672C381.828 54.1432 382.216 54.9191 382.992 55.4041L390.848 59.9628C391.527 60.3508 392.4 60.3508 393.176 59.9628L401.033 55.4041C401.712 55.0161 402.197 54.2402 402.197 53.3672V44.1528C402.197 43.3768 401.809 42.6009 401.033 42.1159L393.176 37.5572Z" fill="white"/>
</g>
</g>
<defs>
<linearGradient id="paint0_linear_108_172" x1="327.154" y1="27.0333" x2="307.872" y2="63.9633" gradientUnits="userSpaceOnUse">
<stop stop-color="#00FFA3"/>
<stop offset="1" stop-color="#DC1FFF"/>
</linearGradient>
<linearGradient id="paint1_linear_108_172" x1="318.724" y1="22.6314" x2="299.443" y2="59.5623" gradientUnits="userSpaceOnUse">
<stop stop-color="#00FFA3"/>
<stop offset="1" stop-color="#DC1FFF"/>
</linearGradient>
<linearGradient id="paint2_linear_108_172" x1="322.911" y1="24.8179" x2="303.631" y2="61.7487" gradientUnits="userSpaceOnUse">
<stop stop-color="#00FFA3"/>
<stop offset="1" stop-color="#DC1FFF"/>
</linearGradient>
<clipPath id="clip0_108_172">
<rect width="411.622" height="88" rx="16" fill="white"/>
</clipPath>
<clipPath id="clip1_108_172">
<rect width="34.72" height="56" fill="white" transform="translate(81.8906 16)"/>
</clipPath>
<clipPath id="clip2_108_172">
<rect width="56" height="55.98" fill="white" transform="translate(214.241 16.01)"/>
</clipPath>
<clipPath id="clip3_108_172">
<rect width="37.1487" height="32.687" fill="white" transform="translate(365.048 27.5668)"/>
</clipPath>
</defs>
</svg>
